<svg xmlns="http://www.w3.org/2000/svg" width="1100" height="520" viewBox="0 0 1100 520">
<style>text{font-family:Arial,sans-serif;font-size:14px;fill:#102030}.title{font-size:22px;font-weight:bold}.part{fill:#f7f4ee;stroke:#102030;stroke-width:1.5}.mold{fill:#d9e2e7;stroke:#102030;stroke-width:1.4}.line{stroke:#102030;stroke-width:1.2;fill:none}.dim{stroke:#445;stroke-width:1;stroke-dasharray:4 4}.call{font-size:12px}</style>
<text class="title" x="40" y="42">Slip-Cast Transverse Flute Mold Stack - Concept Drawing</text>
<text x="40" y="68">Use as a manufacturing brief, not a finished mold drawing. Final split lines depend on CAD draft, release tests, and clay body.</text>
<rect class="mold" x="120" y="150" width="820" height="92" rx="18"/>
<rect class="mold" x="120" y="278" width="820" height="92" rx="18"/>
<rect class="part" x="185" y="236" width="690" height="56" rx="28"/>
<line class="dim" x1="120" y1="260" x2="940" y2="260"/>
<circle class="part" cx="250" cy="264" r="15"/>
<circle class="part" cx="380" cy="264" r="10"/>
<circle class="part" cx="455" cy="264" r="10"/>
<circle class="part" cx="525" cy="264" r="10"/>
<circle class="part" cx="590" cy="264" r="10"/>
<circle class="part" cx="655" cy="264" r="10"/>
<circle class="part" cx="720" cy="264" r="10"/>
<path class="line" d="M165 150 L165 370"/>
<path class="line" d="M895 150 L895 370"/>
<circle cx="210" cy="196" r="13" fill="#fff" stroke="#102030"/>
<circle cx="830" cy="196" r="13" fill="#fff" stroke="#102030"/>
<circle cx="210" cy="324" r="13" fill="#fff" stroke="#102030"/>
<circle cx="830" cy="324" r="13" fill="#fff" stroke="#102030"/>
<text class="call" x="150" y="126">Pour/drain reservoir at head or foot; keep it outside final fired trim band.</text>
<line class="line" x1="180" y1="132" x2="190" y2="225"/>
<text class="call" x="430" y="126">Molded center marks are useful; cut tone holes undersize at leather-hard stage for tuning.</text>
<line class="line" x1="575" y1="132" x2="575" y2="248"/>
<text class="call" x="610" y="425">Registration keys clear of bore axis and acoustic edges.</text>
<line class="line" x1="700" y1="405" x2="830" y2="337"/>
<text class="call" x="120" y="425">Optional three-piece mold for D4 length, ovalized forms, or undercut-looking external detail.</text>
<text class="call" x="40" y="482">Critical controls: mold dry weight, pour time, drain time, wall thickness coupon, demold time, seam cleanup, head-stopper fit, and edge glaze exclusion.</text>
</svg>
