<svg xmlns="http://www.w3.org/2000/svg" width="724" height="330" viewBox="0 0 724 330">
<style>text{font-family:Arial,sans-serif;font-size:12px;fill:#102030}.small{font-size:10px}.line{stroke:#102030;stroke-width:1.2;fill:none}.dim{stroke:#446;stroke-width:1;marker-start:url(#a);marker-end:url(#a)}.body{fill:#f7f4ee;stroke:#102030;stroke-width:1.5}.hole{fill:#ffffff;stroke:#102030;stroke-width:1.2}</style>
<defs><marker id="a" markerWidth="6" markerHeight="6" refX="3" refY="3" orient="auto"><path d="M0,3 L6,0 L6,6 Z" fill="#446"/></marker></defs>
<text x="70" y="34" style="font-size:18px;font-weight:bold">SCF-C5-01 Slip-Cast Transverse Flute - Fired Target Drawing</text>
<text x="70" y="54">Key C5; bore ID 0.512 in; OD 0.742 in; pre-trim fired length 13.911 in; initial master X 15.808 in at 12% shrink</text>
<rect class="body" x="70.0" y="120.0" width="584.2" height="31.2" rx="15.6"/>
<line class="line" x1="70.0" y1="135.6" x2="654.2" y2="135.6" stroke-dasharray="5 5"/>
<ellipse class="hole" cx="102.3" cy="135.6" rx="6.8" ry="5.6"/>
<text class="small" x="72.3" y="108.0">Emb</text>
<circle class="hole" cx="148.7" cy="135.6" r="3.7"/>
<text class="small" x="138.7" y="179.2">H1</text>
<text class="small" x="132.7" y="193.2">D5</text>
<circle class="hole" cx="201.6" cy="135.6" r="3.9"/>
<text class="small" x="191.6" y="179.2">H2</text>
<text class="small" x="185.6" y="193.2">E5</text>
<circle class="hole" cx="225.8" cy="135.6" r="4.1"/>
<text class="small" x="215.8" y="179.2">H3</text>
<text class="small" x="209.8" y="193.2">F5</text>
<circle class="hole" cx="270.2" cy="135.6" r="4.3"/>
<text class="small" x="260.2" y="179.2">H4</text>
<text class="small" x="254.2" y="193.2">G5</text>
<circle class="hole" cx="309.8" cy="135.6" r="4.6"/>
<text class="small" x="299.8" y="179.2">H5</text>
<text class="small" x="293.8" y="193.2">A5</text>
<circle class="hole" cx="345.1" cy="135.6" r="4.9"/>
<text class="small" x="335.1" y="179.2">H6</text>
<text class="small" x="329.1" y="193.2">B5</text>
<line class="dim" x1="70.0" y1="226.2" x2="654.2" y2="226.2"/>
<line class="line" x1="70.0" y1="151.2" x2="70.0" y2="234.2"/>
<line class="line" x1="654.2" y1="151.2" x2="654.2" y2="234.2"/>
<text x="292.1" y="248.2">Pre-trim fired length 13.911 in</text>
<text class="small" x="70" y="284">Datums: X0=head end, X+ toward foot; centerline through bore. Tone-hole stations are first-pass acoustic targets and should be cut undersize, then tuned after bisque.</text>
<text class="small" x="70" y="302">Shrink model: master_x=fired_x/(1-sx), master_y=fired_y/(1-sy), master_z=fired_z/(1-sz). Initial sx=sy=sz=12%; replace with measured Round 1 data.</text>
</svg>
