<svg xmlns="http://www.w3.org/2000/svg" width="912" height="330" viewBox="0 0 912 330">
<style>text{font-family:Arial,sans-serif;font-size:12px;fill:#102030}.small{font-size:10px}.line{stroke:#102030;stroke-width:1.2;fill:none}.dim{stroke:#446;stroke-width:1;marker-start:url(#a);marker-end:url(#a)}.body{fill:#f7f4ee;stroke:#102030;stroke-width:1.5}.hole{fill:#ffffff;stroke:#102030;stroke-width:1.2}</style>
<defs><marker id="a" markerWidth="6" markerHeight="6" refX="3" refY="3" orient="auto"><path d="M0,3 L6,0 L6,6 Z" fill="#446"/></marker></defs>
<text x="70" y="34" style="font-size:18px;font-weight:bold">SCF-G4-01 Slip-Cast Transverse Flute - Fired Target Drawing</text>
<text x="70" y="54">Key G4; bore ID 0.669 in; OD 0.929 in; pre-trim fired length 18.388 in; initial master X 20.895 in at 12% shrink</text>
<rect class="body" x="70.0" y="120.0" width="772.3" height="39.0" rx="19.5"/>
<line class="line" x1="70.0" y1="139.5" x2="842.3" y2="139.5" stroke-dasharray="5 5"/>
<ellipse class="hole" cx="112.1" cy="139.5" rx="8.9" ry="7.3"/>
<text class="small" x="82.1" y="108.0">Emb</text>
<circle class="hole" cx="174.5" cy="139.5" r="4.8"/>
<text class="small" x="164.5" y="187.0">H1</text>
<text class="small" x="158.5" y="201.0">A4</text>
<circle class="hole" cx="245.1" cy="139.5" r="5.1"/>
<text class="small" x="235.1" y="187.0">H2</text>
<text class="small" x="229.1" y="201.0">B4</text>
<circle class="hole" cx="277.4" cy="139.5" r="5.3"/>
<text class="small" x="267.4" y="187.0">H3</text>
<text class="small" x="261.4" y="201.0">C5</text>
<circle class="hole" cx="336.7" cy="139.5" r="5.6"/>
<text class="small" x="326.7" y="187.0">H4</text>
<text class="small" x="320.7" y="201.0">D5</text>
<circle class="hole" cx="389.6" cy="139.5" r="6.0"/>
<text class="small" x="379.6" y="187.0">H5</text>
<text class="small" x="373.6" y="201.0">E5</text>
<circle class="hole" cx="436.7" cy="139.5" r="6.5"/>
<text class="small" x="426.7" y="187.0">H6</text>
<text class="small" x="420.7" y="201.0">Gb5</text>
<line class="dim" x1="70.0" y1="234.0" x2="842.3" y2="234.0"/>
<line class="line" x1="70.0" y1="159.0" x2="70.0" y2="242.0"/>
<line class="line" x1="842.3" y1="159.0" x2="842.3" y2="242.0"/>
<text x="386.1" y="256.0">Pre-trim fired length 18.388 in</text>
<text class="small" x="70" y="284">Datums: X0=head end, X+ toward foot; centerline through bore. Tone-hole stations are first-pass acoustic targets and should be cut undersize, then tuned after bisque.</text>
<text class="small" x="70" y="302">Shrink model: master_x=fired_x/(1-sx), master_y=fired_y/(1-sy), master_z=fired_z/(1-sz). Initial sx=sy=sz=12%; replace with measured Round 1 data.</text>
</svg>
