<svg xmlns="http://www.w3.org/2000/svg" width="1158" height="330" viewBox="0 0 1158 330">
<style>text{font-family:Arial,sans-serif;font-size:12px;fill:#102030}.small{font-size:10px}.line{stroke:#102030;stroke-width:1.2;fill:none}.dim{stroke:#446;stroke-width:1;marker-start:url(#a);marker-end:url(#a)}.body{fill:#f7f4ee;stroke:#102030;stroke-width:1.5}.hole{fill:#ffffff;stroke:#102030;stroke-width:1.2}</style>
<defs><marker id="a" markerWidth="6" markerHeight="6" refX="3" refY="3" orient="auto"><path d="M0,3 L6,0 L6,6 Z" fill="#446"/></marker></defs>
<text x="70" y="34" style="font-size:18px;font-weight:bold">SCF-D4-01 Slip-Cast Transverse Flute - Fired Target Drawing</text>
<text x="70" y="54">Key D4; bore ID 0.748 in; OD 1.028 in; pre-trim fired length 24.247 in; initial master X 27.554 in at 12% shrink</text>
<rect class="body" x="70.0" y="120.0" width="1018.4" height="43.2" rx="21.6"/>
<line class="line" x1="70.0" y1="141.6" x2="1088.4" y2="141.6" stroke-dasharray="5 5"/>
<ellipse class="hole" cx="117.1" cy="141.6" rx="9.9" ry="8.2"/>
<text class="small" x="87.1" y="108.0">Emb</text>
<circle class="hole" cx="204.0" cy="141.6" r="5.3"/>
<text class="small" x="194.0" y="191.2">H1</text>
<text class="small" x="188.0" y="205.2">E4</text>
<circle class="hole" cx="298.2" cy="141.6" r="5.7"/>
<text class="small" x="288.2" y="191.2">H2</text>
<text class="small" x="282.2" y="205.2">Gb4</text>
<circle class="hole" cx="341.4" cy="141.6" r="6.0"/>
<text class="small" x="331.4" y="191.2">H3</text>
<text class="small" x="325.4" y="205.2">G4</text>
<circle class="hole" cx="420.6" cy="141.6" r="6.3"/>
<text class="small" x="410.6" y="191.2">H4</text>
<text class="small" x="404.6" y="205.2">A4</text>
<circle class="hole" cx="491.1" cy="141.6" r="6.8"/>
<text class="small" x="481.1" y="191.2">H5</text>
<text class="small" x="475.1" y="205.2">B4</text>
<circle class="hole" cx="554.0" cy="141.6" r="7.2"/>
<text class="small" x="544.0" y="191.2">H6</text>
<text class="small" x="538.0" y="205.2">Db5</text>
<line class="dim" x1="70.0" y1="238.2" x2="1088.4" y2="238.2"/>
<line class="line" x1="70.0" y1="163.2" x2="70.0" y2="246.2"/>
<line class="line" x1="1088.4" y1="163.2" x2="1088.4" y2="246.2"/>
<text x="509.2" y="260.2">Pre-trim fired length 24.247 in</text>
<text class="small" x="70" y="284">Datums: X0=head end, X+ toward foot; centerline through bore. Tone-hole stations are first-pass acoustic targets and should be cut undersize, then tuned after bisque.</text>
<text class="small" x="70" y="302">Shrink model: master_x=fired_x/(1-sx), master_y=fired_y/(1-sy), master_z=fired_z/(1-sz). Initial sx=sy=sz=12%; replace with measured Round 1 data.</text>
</svg>
