<svg xmlns="http://www.w3.org/2000/svg" width="1001" height="330" viewBox="0 0 1001 330">
<style>text{font-family:Arial,sans-serif;font-size:12px;fill:#102030}.small{font-size:10px}.line{stroke:#102030;stroke-width:1.2;fill:none}.dim{stroke:#446;stroke-width:1;marker-start:url(#a);marker-end:url(#a)}.body{fill:#f7f4ee;stroke:#102030;stroke-width:1.5}.hole{fill:#ffffff;stroke:#102030;stroke-width:1.2}</style>
<defs><marker id="a" markerWidth="6" markerHeight="6" refX="3" refY="3" orient="auto"><path d="M0,3 L6,0 L6,6 Z" fill="#446"/></marker></defs>
<text x="70" y="34" style="font-size:18px;font-weight:bold">SCF-F4-01 Slip-Cast Transverse Flute - Fired Target Drawing</text>
<text x="70" y="54">Key F4; bore ID 0.669 in; OD 0.939 in; pre-trim fired length 20.505 in; initial master X 23.301 in at 12% shrink</text>
<rect class="body" x="70.0" y="120.0" width="861.2" height="39.4" rx="19.7"/>
<line class="line" x1="70.0" y1="139.7" x2="931.2" y2="139.7" stroke-dasharray="5 5"/>
<ellipse class="hole" cx="112.1" cy="139.7" rx="8.9" ry="7.3"/>
<text class="small" x="82.1" y="108.0">Emb</text>
<circle class="hole" cx="184.2" cy="139.7" r="4.8"/>
<text class="small" x="174.2" y="187.4">H1</text>
<text class="small" x="168.2" y="201.4">G4</text>
<circle class="hole" cx="263.4" cy="139.7" r="5.1"/>
<text class="small" x="253.4" y="187.4">H2</text>
<text class="small" x="247.4" y="201.4">A4</text>
<circle class="hole" cx="299.7" cy="139.7" r="5.3"/>
<text class="small" x="289.7" y="187.4">H3</text>
<text class="small" x="283.7" y="201.4">Bb4</text>
<circle class="hole" cx="366.3" cy="139.7" r="5.6"/>
<text class="small" x="356.3" y="187.4">H4</text>
<text class="small" x="350.3" y="201.4">C5</text>
<circle class="hole" cx="425.7" cy="139.7" r="6.0"/>
<text class="small" x="415.7" y="187.4">H5</text>
<text class="small" x="409.7" y="201.4">D5</text>
<circle class="hole" cx="478.5" cy="139.7" r="6.5"/>
<text class="small" x="468.5" y="187.4">H6</text>
<text class="small" x="462.5" y="201.4">E5</text>
<line class="dim" x1="70.0" y1="234.4" x2="931.2" y2="234.4"/>
<line class="line" x1="70.0" y1="159.4" x2="70.0" y2="242.4"/>
<line class="line" x1="931.2" y1="159.4" x2="931.2" y2="242.4"/>
<text x="430.6" y="256.4">Pre-trim fired length 20.505 in</text>
<text class="small" x="70" y="284">Datums: X0=head end, X+ toward foot; centerline through bore. Tone-hole stations are first-pass acoustic targets and should be cut undersize, then tuned after bisque.</text>
<text class="small" x="70" y="302">Shrink model: master_x=fired_x/(1-sx), master_y=fired_y/(1-sy), master_z=fired_z/(1-sz). Initial sx=sy=sz=12%; replace with measured Round 1 data.</text>
</svg>
